<svg xmlns="http://www.w3.org/2000/svg" viewBox="0 0 128 128" width="128" height="128" role="img" aria-label="Bitcoin">
  <defs>
    <linearGradient id="g" x1="0" x2="0" y1="0" y2="1">
      <stop offset="0%" stop-color="#f7931a"/>
      <stop offset="100%" stop-color="#e07a00"/>
    </linearGradient>
  </defs>
  <circle cx="64" cy="64" r="60" fill="url(#g)"/>
  <g fill="#fff" transform="translate(32,24)">
    <path d="M54.9 37.5c1.8-12.1-7.4-18.6-20-22.9l4.1-16.6-10-2.5-4 16.2c-2.6-.7-5.3-1.3-8-2l4-16.3-10-2.5-4.1 16.6c-2.2-.5-4.4-1.1-6.5-1.6l-5.3 12c0 0 3 0.8 2.9 0.7 1.6 0.4 2.3 1.7 2.3 3.2l-5.4 21.8c-0.3 0.7-0.9 1.7-2.4 1.3 0.1 0.1-2.9-0.7-2.9-0.7l-2.5 9.4c2.1 0.6 4.3 1.2 6.6 1.8l-4.1 16.8 10 2.5 4.1-16.6c2.7 0.7 5.3 1.4 7.9 2l-4.1 16.5 10 2.5 4.1-16.8c17 3.2 29.9 1.9 35.3-13.4 4.3-12.2-0.2-19.2-9.1-23.8 6.5-1.5 11.4-5.6 12.8-14.2zM42.4 63.4c-3.1 12.2-24.4 5.6-31.3 3.9l5.6-22.8c6.9 1.7 28.9 5 25.7 18.9zm3.1-28.5c-2.8 11.1-20.1 5.5-25.7 4.1l5-20.2c5.6 1.4 23.6 4.1 20.7 16.1z"/>
  </g>
</svg>

